<svg version="1.1" viewBox="0.0 0.0 100.0 102.20997375328083" fill="none" stroke="none" stroke-linecap="square" stroke-miterlimit="10" xmlns:xlink="http://www.w3.org/1999/xlink" xmlns="http://www.w3.org/2000/svg"><clipPath id="p.0"><path d="m0 0l100.0 0l0 102.20998l-100.0 0l0 -102.20998z" clip-rule="nonzero"/></clipPath><g clip-path="url(#p.0)"><path fill="#000000" fill-opacity="0.0" d="m0 0l100.0 0l0 102.20998l-100.0 0z" fill-rule="evenodd"/><path fill="#000000" fill-opacity="0.0" d="m0 5.71916l100.0 0l0 90.77165l-100.0 0z" fill-rule="evenodd"/><path fill="#000000" d="m23.4375 50.344162q6.0 -2.34375 12.234375 -6.25l4.171875 1.8125q1.5625 1.3125 -1.046875 1.046875q-5.71875 3.90625 -12.484375 7.03125l-2.875 -3.640625zm7.8125 -7.03125l0 -3.125l37.5 0l0 3.125l-37.5 0zm41.40625 9.890625q-6.25 -2.078125 -13.28125 -6.515625l3.640625 -2.59375q5.734375 2.859375 13.015625 5.46875l-3.375 3.640625zm-8.078125 28.640625l-29.421875 0l0 3.390625l-5.203125 0l0 -23.703125q-4.953125 2.34375 -9.109375 3.125l-1.828125 -4.6875q18.75 -5.46875 27.59375 -15.625l6.25 0q1.5625 0.53125 0 1.046875l-0.515625 0.515625q11.453125 8.34375 28.375 13.03125l-2.34375 4.9375q-3.90625 -1.296875 -8.59375 -3.125l0 23.953125l-5.203125 0l0 -2.859375zm-29.421875 -7.03125l0 3.90625l29.421875 0l0 -3.90625l-29.421875 0zm29.421875 -7.03125l-29.421875 0l0 3.90625l29.421875 0l0 -3.90625zm0 -6.765625l-29.421875 0l0 3.640625l29.421875 0l0 -3.640625zm13.546875 -27.34375l0 10.15625l-5.21875 0l0 -5.984375l-46.078125 0l0 7.03125l-5.203125 0l0 -11.203125l24.46875 0l0 -9.375002l4.953125 0q2.078125 0.265625 0.25 1.5625l0 1.046875l18.484375 0l0 4.15625l-18.484375 0l0 2.609377l26.828125 0zm-28.640625 15.625q-5.734375 4.953125 -12.765625 8.59375l26.828125 0q-7.296875 -3.640625 -14.0625 -8.59375z" fill-rule="nonzero"/></g></svg>